<svg xmlns="http://www.w3.org/2000/svg" xmlns:xlink="http://www.w3.org/1999/xlink" width="160" zoomAndPan="magnify" viewBox="0 0 120 37.5" height="50" preserveAspectRatio="xMidYMid meet" version="1.0"><defs><g/><clipPath id="b7cc23b116"><path d="M 34.25 25.554688 L 35 25.554688 L 35 34 L 34.25 34 Z M 34.25 25.554688 " clip-rule="nonzero"/></clipPath></defs><path fill="#e4c590" d="M 24.855469 31.527344 C 22.757812 32.660156 20.359375 33.304688 17.8125 33.304688 C 9.636719 33.304688 3.011719 26.679688 3.011719 18.503906 C 3.011719 10.328125 9.636719 3.699219 17.8125 3.699219 C 20.070312 3.699219 22.210938 4.207031 24.128906 5.113281 C 24.003906 5.269531 23.886719 5.433594 23.78125 5.609375 C 23.265625 6.429688 22.863281 7.425781 22.601562 8.484375 C 21.152344 7.789062 19.527344 7.402344 17.8125 7.402344 C 11.679688 7.402344 6.710938 12.371094 6.710938 18.503906 C 6.710938 24.632812 11.679688 29.605469 17.8125 29.605469 C 20.988281 29.605469 23.851562 28.269531 25.878906 26.132812 C 25.65625 26.953125 25.355469 27.832031 24.945312 28.816406 C 24.640625 29.464844 24.558594 29.9375 24.558594 30.6875 C 24.558594 30.988281 24.664062 31.269531 24.855469 31.527344 Z M 22.261719 10.816406 C 22.148438 13.527344 23.015625 16.183594 25.335938 17.210938 C 26.054688 17.859375 26.5 18.660156 26.5 19.703125 C 26.5 19.925781 26.5 20.144531 26.5 20.359375 C 25.644531 24.375 22.082031 27.386719 17.8125 27.386719 C 12.90625 27.386719 8.929688 23.410156 8.929688 18.503906 C 8.929688 13.597656 12.90625 9.621094 17.8125 9.621094 C 19.433594 9.621094 20.953125 10.054688 22.261719 10.816406 Z M 22.261719 10.816406 " fill-opacity="1" fill-rule="evenodd"/><path fill="#e4c590" d="M 31.699219 16.933594 C 35.425781 15.214844 35.261719 9.734375 33.214844 6.320312 C 31.132812 2.851562 28.023438 2.800781 25.910156 6.320312 C 23.875 9.714844 23.6875 15.210938 27.429688 16.933594 C 28.113281 17.570312 28.636719 18.824219 28.636719 19.855469 C 28.636719 22.957031 28.828125 25.394531 27.210938 28.96875 C 26.921875 29.609375 26.789062 30.097656 26.789062 30.496094 C 26.789062 32.046875 28.03125 33.304688 29.5625 33.304688 C 31.09375 33.304688 32.339844 32.046875 32.339844 30.496094 C 32.339844 30.097656 32.203125 29.609375 31.914062 28.96875 C 30.277344 25.34375 30.488281 22.738281 30.488281 19.855469 C 30.488281 18.824219 31.011719 17.570312 31.699219 16.933594 Z M 31.699219 16.933594 " fill-opacity="1" fill-rule="nonzero"/><path fill="#e4c590" d="M 40.757812 32.90625 L 40.757812 27.207031 L 42.71875 27.207031 C 43.167969 27.207031 43.539062 27.285156 43.824219 27.433594 C 44.117188 27.585938 44.335938 27.792969 44.476562 28.054688 C 44.617188 28.308594 44.6875 28.59375 44.6875 28.910156 C 44.6875 29.261719 44.59375 29.582031 44.402344 29.871094 C 44.21875 30.15625 43.929688 30.363281 43.53125 30.488281 L 44.746094 32.90625 L 43.746094 32.90625 L 42.636719 30.609375 L 41.621094 30.609375 L 41.621094 32.90625 Z M 41.621094 29.960938 L 42.667969 29.960938 C 43.0625 29.960938 43.34375 29.863281 43.523438 29.675781 C 43.710938 29.484375 43.800781 29.238281 43.800781 28.933594 C 43.800781 28.628906 43.710938 28.386719 43.53125 28.207031 C 43.355469 28.023438 43.0625 27.933594 42.660156 27.933594 L 41.621094 27.933594 Z M 41.621094 29.960938 " fill-opacity="1" fill-rule="nonzero"/><path fill="#e4c590" d="M 48.640625 32.90625 L 48.640625 27.207031 L 52.265625 27.207031 L 52.265625 27.90625 L 49.503906 27.90625 L 49.503906 29.683594 L 52.019531 29.683594 L 52.019531 30.367188 L 49.503906 30.367188 L 49.503906 32.207031 L 52.265625 32.207031 L 52.265625 32.90625 Z M 48.640625 32.90625 " fill-opacity="1" fill-rule="nonzero"/><path fill="#e4c590" d="M 58.101562 33.003906 C 57.683594 33.003906 57.320312 32.929688 57.003906 32.785156 C 56.691406 32.636719 56.441406 32.429688 56.261719 32.15625 C 56.089844 31.886719 56 31.5625 55.996094 31.1875 L 56.90625 31.1875 C 56.910156 31.492188 57.019531 31.75 57.222656 31.960938 C 57.429688 32.171875 57.722656 32.28125 58.09375 32.28125 C 58.425781 32.28125 58.683594 32.199219 58.867188 32.042969 C 59.058594 31.878906 59.152344 31.675781 59.152344 31.425781 C 59.152344 31.222656 59.109375 31.0625 59.015625 30.9375 C 58.929688 30.8125 58.804688 30.707031 58.648438 30.625 C 58.496094 30.546875 58.320312 30.472656 58.121094 30.40625 C 57.917969 30.339844 57.707031 30.269531 57.484375 30.195312 C 57.046875 30.046875 56.714844 29.859375 56.492188 29.625 C 56.273438 29.390625 56.164062 29.085938 56.164062 28.707031 C 56.160156 28.386719 56.234375 28.105469 56.386719 27.867188 C 56.542969 27.628906 56.761719 27.441406 57.035156 27.3125 C 57.320312 27.175781 57.648438 27.109375 58.023438 27.109375 C 58.390625 27.109375 58.714844 27.175781 58.992188 27.3125 C 59.273438 27.449219 59.492188 27.640625 59.648438 27.882812 C 59.808594 28.121094 59.890625 28.402344 59.894531 28.722656 L 58.984375 28.722656 C 58.984375 28.574219 58.945312 28.4375 58.867188 28.304688 C 58.792969 28.171875 58.679688 28.058594 58.535156 27.972656 C 58.386719 27.886719 58.210938 27.84375 57.996094 27.84375 C 57.726562 27.835938 57.5 27.90625 57.320312 28.046875 C 57.148438 28.1875 57.0625 28.382812 57.0625 28.632812 C 57.0625 28.855469 57.125 29.027344 57.257812 29.144531 C 57.386719 29.265625 57.566406 29.363281 57.792969 29.445312 C 58.023438 29.523438 58.28125 29.613281 58.574219 29.714844 C 58.859375 29.808594 59.109375 29.917969 59.332031 30.046875 C 59.554688 30.179688 59.730469 30.351562 59.863281 30.5625 C 59.996094 30.773438 60.066406 31.042969 60.066406 31.367188 C 60.066406 31.65625 59.992188 31.925781 59.847656 32.171875 C 59.699219 32.417969 59.480469 32.617188 59.1875 32.777344 C 58.894531 32.929688 58.53125 33.003906 58.101562 33.003906 Z M 58.101562 33.003906 " fill-opacity="1" fill-rule="nonzero"/><path fill="#e4c590" d="M 65.171875 32.90625 L 65.171875 27.90625 L 63.488281 27.90625 L 63.488281 27.207031 L 67.710938 27.207031 L 67.710938 27.90625 L 66.035156 27.90625 L 66.035156 32.90625 Z M 65.171875 32.90625 " fill-opacity="1" fill-rule="nonzero"/><path fill="#e4c590" d="M 70.464844 32.90625 L 72.566406 27.207031 L 73.507812 27.207031 L 75.59375 32.90625 L 74.679688 32.90625 L 74.191406 31.515625 L 71.863281 31.515625 L 71.375 32.90625 Z M 72.109375 30.832031 L 73.949219 30.832031 L 73.027344 28.234375 Z M 72.109375 30.832031 " fill-opacity="1" fill-rule="nonzero"/><path fill="#e4c590" d="M 81.207031 33.003906 C 80.796875 33.003906 80.429688 32.925781 80.097656 32.769531 C 79.773438 32.605469 79.511719 32.359375 79.316406 32.027344 C 79.125 31.695312 79.03125 31.273438 79.03125 30.765625 L 79.03125 27.207031 L 79.894531 27.207031 L 79.894531 30.773438 C 79.894531 31.273438 80.015625 31.640625 80.253906 31.871094 C 80.492188 32.105469 80.816406 32.222656 81.222656 32.222656 C 81.621094 32.222656 81.945312 32.105469 82.183594 31.871094 C 82.421875 31.640625 82.539062 31.273438 82.539062 30.773438 L 82.539062 27.207031 L 83.402344 27.207031 L 83.402344 30.765625 C 83.402344 31.273438 83.304688 31.695312 83.101562 32.027344 C 82.90625 32.359375 82.640625 32.605469 82.304688 32.769531 C 81.972656 32.925781 81.605469 33.003906 81.207031 33.003906 Z M 81.207031 33.003906 " fill-opacity="1" fill-rule="nonzero"/><path fill="#e4c590" d="M 87.441406 32.90625 L 87.441406 27.207031 L 89.402344 27.207031 C 89.855469 27.207031 90.222656 27.285156 90.511719 27.433594 C 90.804688 27.585938 91.019531 27.792969 91.160156 28.054688 C 91.304688 28.308594 91.375 28.59375 91.375 28.910156 C 91.375 29.261719 91.277344 29.582031 91.089844 29.871094 C 90.902344 30.15625 90.613281 30.363281 90.21875 30.488281 L 91.429688 32.90625 L 90.429688 32.90625 L 89.320312 30.609375 L 88.304688 30.609375 L 88.304688 32.90625 Z M 88.304688 29.960938 L 89.355469 29.960938 C 89.746094 29.960938 90.03125 29.863281 90.210938 29.675781 C 90.394531 29.484375 90.484375 29.238281 90.484375 28.933594 C 90.484375 28.628906 90.394531 28.386719 90.21875 28.207031 C 90.039062 28.023438 89.75 27.933594 89.347656 27.933594 L 88.304688 27.933594 Z M 88.304688 29.960938 " fill-opacity="1" fill-rule="nonzero"/><path fill="#e4c590" d="M 94.960938 32.90625 L 97.058594 27.207031 L 98.003906 27.207031 L 100.089844 32.90625 L 99.175781 32.90625 L 98.6875 31.515625 L 96.359375 31.515625 L 95.871094 32.90625 Z M 96.605469 30.832031 L 98.445312 30.832031 L 97.523438 28.234375 Z M 96.605469 30.832031 " fill-opacity="1" fill-rule="nonzero"/><path fill="#e4c590" d="M 103.8125 32.90625 L 103.8125 27.207031 L 104.675781 27.207031 L 107.535156 31.496094 L 107.535156 27.207031 L 108.398438 27.207031 L 108.398438 32.90625 L 107.535156 32.90625 L 104.675781 28.617188 L 104.675781 32.90625 Z M 103.8125 32.90625 " fill-opacity="1" fill-rule="nonzero"/><path fill="#e4c590" d="M 113.820312 32.90625 L 113.820312 27.90625 L 112.136719 27.90625 L 112.136719 27.207031 L 116.359375 27.207031 L 116.359375 27.90625 L 114.683594 27.90625 L 114.683594 32.90625 Z M 113.820312 32.90625 " fill-opacity="1" fill-rule="nonzero"/><g clip-path="url(#b7cc23b116)"><path fill="#e4c590" d="M 31.699219 16.933594 C 35.425781 15.214844 35.261719 9.734375 33.214844 6.320312 C 31.132812 2.851562 28.023438 2.800781 25.910156 6.320312 C 23.875 9.714844 23.6875 15.210938 27.429688 16.933594 C 28.113281 17.570312 28.636719 18.824219 28.636719 19.855469 C 28.636719 22.957031 28.828125 25.394531 27.210938 28.96875 C 26.921875 29.609375 26.789062 30.097656 26.789062 30.496094 C 26.789062 32.046875 28.03125 33.304688 29.5625 33.304688 C 31.09375 33.304688 32.339844 32.046875 32.339844 30.496094 C 32.339844 30.097656 32.203125 29.609375 31.914062 28.96875 C 30.277344 25.34375 30.488281 22.738281 30.488281 19.855469 C 30.488281 18.824219 31.011719 17.570312 31.699219 16.933594 Z M 31.699219 16.933594 " fill-opacity="1" fill-rule="nonzero"/></g><g fill="#ffffff" fill-opacity="1"><g transform="translate(40.077955, 21.910574)"><g><path d="M 1.1875 0 C 1.40625 -0.6875 1.5625 -1.367188 1.65625 -2.046875 C 1.75 -2.734375 1.796875 -3.550781 1.796875 -4.5 L 1.796875 -11.171875 C 1.796875 -12.117188 1.75 -12.929688 1.65625 -13.609375 C 1.5625 -14.296875 1.40625 -14.984375 1.1875 -15.671875 L 9.671875 -15.671875 L 8.53125 -13.203125 C 7.3125 -13.816406 5.828125 -14.125 4.078125 -14.125 L 4.078125 -8.765625 L 9.109375 -8.765625 L 7.765625 -6.515625 C 6.765625 -6.890625 5.535156 -7.109375 4.078125 -7.171875 L 4.078125 -1.53125 C 5.347656 -1.53125 6.492188 -1.613281 7.515625 -1.78125 C 8.535156 -1.957031 9.539062 -2.234375 10.53125 -2.609375 L 10.5625 -2.5625 L 9.453125 0 Z M 1.1875 0 "/></g></g></g><g fill="#ffffff" fill-opacity="1"><g transform="translate(51.92596, 21.910574)"><g><path d="M 1.21875 0 C 1.414062 -0.5 1.550781 -0.972656 1.625 -1.421875 C 1.695312 -1.878906 1.734375 -2.394531 1.734375 -2.96875 L 1.734375 -9.453125 L 0.34375 -9.453125 L 0.34375 -9.53125 L 1.734375 -10.984375 L 1.734375 -12.109375 C 1.734375 -13.265625 2.066406 -14.160156 2.734375 -14.796875 C 3.410156 -15.441406 4.289062 -15.765625 5.375 -15.765625 C 6.132812 -15.765625 6.863281 -15.671875 7.5625 -15.484375 L 7.28125 -13.25 L 7.21875 -13.21875 C 6.832031 -13.59375 6.484375 -13.863281 6.171875 -14.03125 C 5.859375 -14.195312 5.539062 -14.28125 5.21875 -14.28125 C 4.351562 -14.28125 3.921875 -13.691406 3.921875 -12.515625 L 3.921875 -10.890625 L 6.4375 -10.890625 L 6.4375 -9.453125 L 3.921875 -9.453125 L 3.921875 -2.96875 C 3.921875 -2.394531 3.957031 -1.878906 4.03125 -1.421875 C 4.113281 -0.972656 4.25 -0.5 4.4375 0 Z M 1.21875 0 "/></g></g></g><g fill="#ffffff" fill-opacity="1"><g transform="translate(59.659017, 21.910574)"><g><path d="M 9.1875 -6.734375 C 9.1875 -6.234375 9.164062 -5.832031 9.125 -5.53125 L 3.03125 -5.359375 C 3.070312 -4.097656 3.382812 -3.1875 3.96875 -2.625 C 4.5625 -2.0625 5.3125 -1.78125 6.21875 -1.78125 C 6.65625 -1.78125 7.085938 -1.859375 7.515625 -2.015625 C 7.953125 -2.179688 8.445312 -2.453125 9 -2.828125 L 9.03125 -2.796875 L 8.28125 -0.40625 C 7.519531 -0.0390625 6.679688 0.140625 5.765625 0.140625 C 4.171875 0.140625 2.921875 -0.316406 2.015625 -1.234375 C 1.117188 -2.160156 0.671875 -3.523438 0.671875 -5.328125 C 0.671875 -6.535156 0.878906 -7.566406 1.296875 -8.421875 C 1.722656 -9.285156 2.296875 -9.941406 3.015625 -10.390625 C 3.742188 -10.835938 4.550781 -11.0625 5.4375 -11.0625 C 6.664062 -11.0625 7.597656 -10.675781 8.234375 -9.90625 C 8.867188 -9.144531 9.1875 -8.085938 9.1875 -6.734375 Z M 7.34375 -6.734375 C 7.34375 -7.671875 7.160156 -8.378906 6.796875 -8.859375 C 6.441406 -9.347656 5.910156 -9.59375 5.203125 -9.59375 C 3.941406 -9.59375 3.222656 -8.640625 3.046875 -6.734375 Z M 7.34375 -6.734375 "/></g></g></g><g fill="#ffffff" fill-opacity="1"><g transform="translate(70.779732, 21.910574)"><g><path d="M 3.5 0.140625 C 2.988281 0.140625 2.523438 0.101562 2.109375 0.03125 C 1.703125 -0.03125 1.234375 -0.128906 0.703125 -0.265625 L 0.84375 -3.296875 L 0.90625 -3.296875 C 1.332031 -2.566406 1.726562 -2.054688 2.09375 -1.765625 C 2.457031 -1.484375 2.894531 -1.34375 3.40625 -1.34375 C 3.875 -1.34375 4.234375 -1.457031 4.484375 -1.6875 C 4.734375 -1.914062 4.859375 -2.25 4.859375 -2.6875 C 4.859375 -3.070312 4.738281 -3.410156 4.5 -3.703125 C 4.269531 -3.992188 3.800781 -4.359375 3.09375 -4.796875 C 2.332031 -5.296875 1.800781 -5.785156 1.5 -6.265625 C 1.195312 -6.753906 1.046875 -7.320312 1.046875 -7.96875 C 1.046875 -8.550781 1.195312 -9.078125 1.5 -9.546875 C 1.800781 -10.023438 2.222656 -10.394531 2.765625 -10.65625 C 3.304688 -10.925781 3.925781 -11.0625 4.625 -11.0625 C 5.382812 -11.0625 6.09375 -10.953125 6.75 -10.734375 L 6.75 -8.671875 L 6.703125 -8.671875 C 6.296875 -9.015625 5.929688 -9.253906 5.609375 -9.390625 C 5.285156 -9.535156 4.953125 -9.609375 4.609375 -9.609375 C 4.179688 -9.609375 3.847656 -9.503906 3.609375 -9.296875 C 3.367188 -9.085938 3.25 -8.796875 3.25 -8.421875 C 3.25 -8.023438 3.375 -7.675781 3.625 -7.375 C 3.875 -7.070312 4.3125 -6.734375 4.9375 -6.359375 C 5.71875 -5.878906 6.269531 -5.394531 6.59375 -4.90625 C 6.925781 -4.414062 7.09375 -3.832031 7.09375 -3.15625 C 7.09375 -2.113281 6.753906 -1.300781 6.078125 -0.71875 C 5.410156 -0.144531 4.550781 0.140625 3.5 0.140625 Z M 3.5 0.140625 "/></g></g></g></svg>